<?xml version="1.0" encoding="UTF-8"?>
<svg width="139.28mm" height="135.57mm" version="1.1" viewBox="0 0 139.28 135.57" xmlns="http://www.w3.org/2000/svg"><g transform="translate(-36.95 -17.885)"><rect x="41.95" y="22.885" width="119.43" height="72.984" ry="0" fill="#0f0b1f" stroke="#575757" stroke-dashoffset="72.567" stroke-linecap="square" stroke-miterlimit="5" stroke-width="10" style="paint-order:markers stroke fill"/><g fill="#575757"><rect x="93.752" y="99.739" width="15.825" height="43.441" style="paint-order:markers stroke fill"/><ellipse cx="101.66" cy="139.31" rx="29.612" ry="14.147" style="paint-order:markers stroke fill"/><ellipse cx="165.69" cy="134.75" rx="10.55" ry="16.784" style="paint-order:markers stroke fill"/></g><rect x="164.37" y="118.12" width="2.6375" height="15.269" fill="#919191" style="paint-order:markers stroke fill"/><path d="m165.69 117.97s0.69408-15.224-26.247-13.726c-12.661 0.70384-37.773-4.5055-37.773-4.5055" fill="none" stroke="#575757"/><text x="49.401497" y="35.053268" font-family="sans-serif" font-size="10.583px" stroke-width=".26458" text-align="center" text-anchor="middle" style="line-height:1.25" xml:space="preserve"><tspan x="49.401497" y="35.053268" stroke-width=".26458">i</tspan></text><rect x="49.401" y="35.053" width="97.543" height="35.629" fill="none" stroke="#3f3f3f" stroke-dashoffset="72.567" stroke-linecap="square" stroke-miterlimit="5" style="paint-order:markers stroke fill"/><g fill="#1e6d00" stroke-width=".26458" aria-label="int *f() {     int totally_fine = 5;     return &amp;totally_fine; }"><path d="m52.492 42.816h0.7366v-3.1178h-2.0828v0.5842h1.3462zm0.3175-3.683c0.29845 0 0.5207-0.19685 0.5207-0.48895 0-0.29845-0.22225-0.4953-0.5207-0.4953s-0.5207 0.19685-0.5207 0.4953c0 0.2921 0.22225 0.48895 0.5207 0.48895zm2.1336 3.683h0.73025v-2.1272c0.28575-0.28575 0.50165-0.43815 0.80645-0.43815 0.4191 0 0.5842 0.2286 0.5842 0.73025v1.8352h0.73025v-1.9304c0-0.8001-0.32385-1.2636-1.0478-1.2636-0.47625 0-0.8255 0.24765-1.124 0.55245h-0.0254l-0.05715-0.47625h-0.5969zm5.7722 0.0762c0.40005 0 0.71755-0.08255 0.99695-0.17145l-0.14605-0.5334c-0.2032 0.0762-0.4191 0.127-0.67945 0.127-0.52705 0-0.7239-0.23495-0.7239-0.7493v-1.2827h1.4224v-0.5842h-1.4224v-0.97155h-0.60325l-0.09525 0.97155-0.85725 0.0381v0.5461h0.8255v1.2827c0 0.79375 0.32385 1.3272 1.2827 1.3272zm6.2929-0.71755 0.7493-0.9525 0.7493 0.9525 0.33655-0.2286-0.65405-1.0224 1.0033-0.43815-0.127-0.37465-1.0414 0.31115-0.06985-1.1684h-0.40005l-0.0635 1.1684-1.0478-0.31115-0.12065 0.37465 0.99695 0.43815-0.65405 1.0224zm4.0958 0.64135h0.73025v-3.2956c0-0.43815 0.2032-0.67945 0.67945-0.67945 0.254 0 0.46355 0.0381 0.6858 0.13335l0.1524-0.53975c-0.2794-0.10795-0.59055-0.1778-0.92075-0.1778-0.92075 0-1.3272 0.5334-1.3272 1.27zm-0.85725-2.5336h2.7686v-0.5842h-1.886l-0.88265 0.03175zm5.842 3.664 0.4064-0.3429c-0.80645-0.7239-1.1684-1.5176-1.1684-2.5527 0-1.0287 0.36195-1.8224 1.1684-2.5464l-0.4064-0.3429c-0.85725 0.7112-1.3843 1.6828-1.3843 2.8892 0 1.2128 0.52705 2.1844 1.3843 2.8956zm2.3813 0c0.85725-0.7112 1.3906-1.6828 1.3906-2.8956 0-1.2065-0.5334-2.178-1.3906-2.8892l-0.40005 0.3429c0.8001 0.7239 1.162 1.5176 1.162 2.5464 0 1.035-0.36195 1.8288-1.162 2.5527zm9.1567-0.1651h0.43815v-0.3937h-0.2921c-0.5842 0-0.7112-0.127-0.7112-0.51435 0-0.36195 0.03175-0.67945 0.03175-1.0922 0-0.4445-0.1651-0.64135-0.6096-0.71755v-0.0254c0.4445-0.0762 0.6096-0.2667 0.6096-0.7112 0-0.38735-0.03175-0.74295-0.03175-1.0922 0-0.38735 0.127-0.51435 0.7112-0.51435h0.2921v-0.40005h-0.43815c-0.80645 0-1.1748 0.20955-1.1748 0.8763 0 0.4445 0.05715 0.75565 0.05715 1.1557 0 0.23495-0.1778 0.4699-0.89535 0.4826v0.43815c0.71755 0.0063 0.89535 0.24765 0.89535 0.4826 0 0.41275-0.05715 0.6985-0.05715 1.1494 0 0.6731 0.3683 0.8763 1.1748 0.8763z"/><path d="m67.732 50.753h0.7366v-3.1178h-2.0828v0.5842h1.3462zm0.3175-3.683c0.29845 0 0.5207-0.19685 0.5207-0.48895 0-0.29845-0.22225-0.4953-0.5207-0.4953s-0.5207 0.19685-0.5207 0.4953c0 0.2921 0.22225 0.48895 0.5207 0.48895zm2.1336 3.683h0.73025v-2.1272c0.28575-0.28575 0.50165-0.43815 0.80645-0.43815 0.4191 0 0.5842 0.2286 0.5842 0.73025v1.8352h0.73025v-1.9304c0-0.8001-0.32385-1.2636-1.0478-1.2636-0.47625 0-0.8255 0.24765-1.124 0.55245h-0.0254l-0.05715-0.47625h-0.5969zm5.7722 0.0762c0.40005 0 0.71755-0.08255 0.99695-0.17145l-0.14605-0.5334c-0.2032 0.0762-0.4191 0.127-0.67945 0.127-0.52705 0-0.7239-0.23495-0.7239-0.7493v-1.2827h1.4224v-0.5842h-1.4224v-0.97155h-0.60325l-0.09525 0.97155-0.85725 0.0381v0.5461h0.8255v1.2827c0 0.79375 0.32385 1.3272 1.2827 1.3272zm7.62 0c0.40005 0 0.71755-0.08255 0.99695-0.17145l-0.14605-0.5334c-0.2032 0.0762-0.4191 0.127-0.67945 0.127-0.52705 0-0.7239-0.23495-0.7239-0.7493v-1.2827h1.4224v-0.5842h-1.4224v-0.97155h-0.60325l-0.09525 0.97155-0.85725 0.0381v0.5461h0.8255v1.2827c0 0.79375 0.32385 1.3272 1.2827 1.3272zm3.2322 0c0.81915 0 1.5621-0.5969 1.5621-1.632s-0.74295-1.6383-1.5621-1.6383c-0.8255 0-1.5684 0.60325-1.5684 1.6383s0.74295 1.632 1.5684 1.632zm0-0.5969c-0.51435 0-0.81915-0.4064-0.81915-1.035 0-0.6223 0.3048-1.0414 0.81915-1.0414 0.508 0 0.8128 0.4191 0.8128 1.0414 0 0.62865-0.3048 1.035-0.8128 1.035zm4.3879 0.5969c0.40005 0 0.71755-0.08255 0.99695-0.17145l-0.14605-0.5334c-0.2032 0.0762-0.4191 0.127-0.67945 0.127-0.52705 0-0.7239-0.23495-0.7239-0.7493v-1.2827h1.4224v-0.5842h-1.4224v-0.97155h-0.60325l-0.09525 0.97155-0.85725 0.0381v0.5461h0.8255v1.2827c0 0.79375 0.32385 1.3272 1.2827 1.3272zm2.8194 0c0.4191 0 0.8382-0.20955 1.162-0.4572h0.0254l0.0508 0.381h0.60325v-1.8415c0-0.86995-0.47625-1.3526-1.3398-1.3526-0.53975 0-1.0478 0.20955-1.4224 0.43815l0.2667 0.4826c0.32385-0.1778 0.66675-0.3302 1.0224-0.3302 0.508 0 0.71755 0.2667 0.7366 0.61595-1.5367 0.10795-2.1526 0.45085-2.1526 1.1494 0 0.5461 0.43815 0.9144 1.0478 0.9144zm0.2159-0.5715c-0.31115 0-0.55245-0.12065-0.55245-0.3937 0-0.3429 0.32385-0.5715 1.4414-0.6477v0.6604c-0.2794 0.23495-0.5715 0.381-0.889 0.381zm4.6419 0.5715c0.36195 0 0.5842-0.06985 0.889-0.17145l-0.17145-0.5461c-0.20955 0.0889-0.37465 0.127-0.53975 0.127-0.31115 0-0.55245-0.15875-0.55245-0.57785v-3.3909h-1.7526v0.5842h1.0224v2.7686c0 0.762 0.381 1.2065 1.1049 1.2065zm3.81 0c0.36195 0 0.5842-0.06985 0.889-0.17145l-0.17145-0.5461c-0.20955 0.0889-0.37465 0.127-0.53975 0.127-0.31115 0-0.55245-0.15875-0.55245-0.57785v-3.3909h-1.7526v0.5842h1.0224v2.7686c0 0.762 0.381 1.2065 1.1049 1.2065zm2.14 1.2065c0.74295 0 1.124-0.43815 1.3906-1.1366l1.3018-3.2639h-0.6985l-0.5588 1.5304c-0.1016 0.2921-0.2159 0.61595-0.31115 0.92075h-0.0254c-0.1143-0.31115-0.23495-0.635-0.3429-0.92075l-0.6477-1.5304h-0.7239l1.397 3.0798-0.0762 0.19685c-0.127 0.31115-0.3556 0.53975-0.75565 0.53975-0.0825 0-0.1778-0.01905-0.254-0.04445l-0.1397 0.56515c0.12065 0.0381 0.2794 0.0635 0.4445 0.0635zm3.321-0.31115h3.048v-0.57785h-3.048zm4.8704-0.97155h0.73025v-3.2956c0-0.43815 0.2032-0.67945 0.67945-0.67945 0.254 0 0.46355 0.0381 0.6858 0.13335l0.1524-0.53975c-0.2794-0.10795-0.59055-0.1778-0.92075-0.1778-0.92075 0-1.3272 0.5334-1.3272 1.27zm-0.85725-2.5336h2.7686v-0.5842h-1.886l-0.88265 0.03175zm5.1054 2.5336h0.7366v-3.1178h-2.0828v0.5842h1.3462zm0.3175-3.683c0.29845 0 0.5207-0.19685 0.5207-0.48895 0-0.29845-0.22225-0.4953-0.5207-0.4953s-0.5207 0.19685-0.5207 0.4953c0 0.2921 0.22225 0.48895 0.5207 0.48895zm2.1336 3.683h0.73025v-2.1272c0.28575-0.28575 0.50165-0.43815 0.80645-0.43815 0.4191 0 0.5842 0.2286 0.5842 0.73025v1.8352h0.73025v-1.9304c0-0.8001-0.32385-1.2636-1.0478-1.2636-0.47625 0-0.8255 0.24765-1.124 0.55245h-0.0254l-0.0571-0.47625h-0.5969zm5.3848 0.0762c0.4572 0 0.889-0.14605 1.2192-0.3683l-0.254-0.45085c-0.2794 0.15875-0.5461 0.254-0.86995 0.254-0.6477 0-1.0858-0.3429-1.0858-1.0732 0-0.69215 0.3937-1.0668 0.9144-1.0668 0.4826 0 0.7747 0.3175 0.7747 0.93345l0.1397-0.1651h-2.0256v0.5207h2.5019c0.0127-0.08255 0.0318-0.22225 0.0318-0.37465 0-0.85725-0.51435-1.4796-1.4478-1.4796-0.83185 0-1.6066 0.61595-1.6066 1.632 0 1.0414 0.7493 1.6383 1.7082 1.6383zm6.0134-2.6162h2.8258v-0.52705h-2.8258zm0 1.4224h2.8258v-0.52705h-2.8258zm8.9344 1.1938c0.8001 0 1.543-0.50165 1.543-1.3906 0-0.8636-0.635-1.2573-1.3906-1.2573-0.254 0-0.4318 0.04445-0.635 0.127l0.0825-0.97155h1.7462v-0.6223h-2.3812l-0.12065 1.9939 0.34925 0.22225c0.2794-0.15875 0.4445-0.22225 0.7493-0.22225 0.508 0 0.8636 0.27305 0.8636 0.7493 0 0.48895-0.38735 0.7747-0.9017 0.7747-0.46355 0-0.78105-0.19685-1.0478-0.4318l-0.3429 0.4699c0.32385 0.29845 0.7747 0.5588 1.4859 0.5588zm3.9116-2.159c0.36195 0 0.6223-0.27305 0.6223-0.64135s-0.26035-0.64135-0.6223-0.64135c-0.3683 0-0.62865 0.27305-0.62865 0.64135s0.26035 0.64135 0.62865 0.64135zm-0.51435 3.448c0.7874-0.26035 1.2256-0.8128 1.2256-1.5875 0-0.59055-0.23495-0.9525-0.67945-0.9525-0.33655 0-0.6096 0.2159-0.6096 0.5715 0 0.3683 0.27305 0.56515 0.59055 0.56515 0.1397 0 0.2794-0.0381 0.38735-0.14605l-0.3683-0.57785 0.0762 0.6731c6e-3 0.4699-0.26035 0.8001-0.8128 1.016z"/><path d="m66.678 58.691h0.73025v-1.7208c0.3175-0.60325 0.74295-0.8255 1.1684-0.8255 0.23495 0 0.3556 0.03175 0.56515 0.1016l0.1524-0.6223c-0.18415-0.08255-0.3556-0.127-0.6096-0.127-0.5334 0-1.0096 0.2794-1.3208 0.7874h-0.0254l-0.05715-0.7112h-0.60325zm5.08 0.0762c0.4572 0 0.889-0.14605 1.2192-0.3683l-0.254-0.45085c-0.2794 0.15875-0.5461 0.254-0.86995 0.254-0.6477 0-1.0858-0.3429-1.0858-1.0732 0-0.69215 0.3937-1.0668 0.9144-1.0668 0.4826 0 0.7747 0.3175 0.7747 0.93345l0.1397-0.1651h-2.0256v0.5207h2.5019c0.0127-0.08255 0.03175-0.22225 0.03175-0.37465 0-0.85725-0.51435-1.4796-1.4478-1.4796-0.83185 0-1.6066 0.61595-1.6066 1.632 0 1.0414 0.7493 1.6383 1.7082 1.6383zm4.1974 0c0.40005 0 0.71755-0.08255 0.99695-0.17145l-0.14605-0.5334c-0.2032 0.0762-0.4191 0.127-0.67945 0.127-0.52705 0-0.7239-0.23495-0.7239-0.7493v-1.2827h1.4224v-0.5842h-1.4224v-0.97155h-0.60325l-0.09525 0.97155-0.85725 0.0381v0.5461h0.8255v1.2827c0 0.79375 0.32385 1.3272 1.2827 1.3272zm2.8131 0c0.46355 0 0.80645-0.2286 1.1049-0.5715h0.0254l0.0508 0.4953h0.60325v-3.1178h-0.7366v2.1082c-0.27305 0.33655-0.48895 0.46355-0.78105 0.46355-0.42545 0-0.5842-0.23495-0.5842-0.7366v-1.8352h-0.73025v1.9304c0 0.80645 0.32385 1.2636 1.0478 1.2636zm3.1496-0.0762h0.73025v-1.7208c0.3175-0.60325 0.74295-0.8255 1.1684-0.8255 0.23495 0 0.3556 0.03175 0.56515 0.1016l0.1524-0.6223c-0.18415-0.08255-0.3556-0.127-0.6096-0.127-0.5334 0-1.0096 0.2794-1.3208 0.7874h-0.0254l-0.05715-0.7112h-0.60325zm3.5052 0h0.73025v-2.1272c0.28575-0.28575 0.50165-0.43815 0.80645-0.43815 0.4191 0 0.5842 0.2286 0.5842 0.73025v1.8352h0.73025v-1.9304c0-0.8001-0.32385-1.2636-1.0478-1.2636-0.47625 0-0.8255 0.24765-1.124 0.55245h-0.0254l-0.05715-0.47625h-0.5969zm8.5916 0.0762c0.59055 0 1.035-0.27305 1.3843-0.6858 0.37465-0.48895 0.62865-1.0604 0.79375-1.6828h-0.6731c-0.127 0.55245-0.33655 1.0033-0.6223 1.3526-0.2413 0.2667-0.51435 0.45085-0.79375 0.45085-0.38735 0-0.67945-0.26035-0.67945-0.64135 0-0.8763 1.6256-1.1811 1.6256-2.2162 0-0.52705-0.33655-0.88265-0.90805-0.88265-0.59055 0-0.97155 0.4699-0.97155 1.0414 0 0.8128 0.8636 2.0002 1.797 2.6988 0.37465 0.28575 0.7239 0.47625 1.0604 0.56515l0.18415-0.5969c-0.2413-0.0635-0.51435-0.2159-0.80645-0.4445-0.78105-0.5461-1.6192-1.5113-1.6192-2.2288 0-0.3175 0.14605-0.5334 0.3683-0.5334 0.23495 0 0.32385 0.17145 0.32385 0.38735 0 0.8509-1.7526 1.0096-1.7526 2.2479 0 0.65405 0.4826 1.1684 1.289 1.1684zm4.8006 0c0.40005 0 0.71755-0.08255 0.99695-0.17145l-0.14605-0.5334c-0.2032 0.0762-0.4191 0.127-0.67945 0.127-0.52705 0-0.7239-0.23495-0.7239-0.7493v-1.2827h1.4224v-0.5842h-1.4224v-0.97155h-0.60325l-0.09525 0.97155-0.85725 0.0381v0.5461h0.8255v1.2827c0 0.79375 0.32385 1.3272 1.2827 1.3272zm3.2321 0c0.81915 0 1.5621-0.5969 1.5621-1.632s-0.74295-1.6383-1.5621-1.6383c-0.8255 0-1.5684 0.60325-1.5684 1.6383s0.74295 1.632 1.5684 1.632zm0-0.5969c-0.51435 0-0.81915-0.4064-0.81915-1.035 0-0.6223 0.3048-1.0414 0.81915-1.0414 0.508 0 0.8128 0.4191 0.8128 1.0414 0 0.62865-0.3048 1.035-0.8128 1.035zm4.3879 0.5969c0.40005 0 0.71755-0.08255 0.99695-0.17145l-0.14605-0.5334c-0.2032 0.0762-0.4191 0.127-0.67945 0.127-0.52705 0-0.7239-0.23495-0.7239-0.7493v-1.2827h1.4224v-0.5842h-1.4224v-0.97155h-0.60325l-0.0953 0.97155-0.85725 0.0381v0.5461h0.8255v1.2827c0 0.79375 0.32385 1.3272 1.2827 1.3272zm2.8194 0c0.4191 0 0.8382-0.20955 1.162-0.4572h0.0254l0.0508 0.381h0.60325v-1.8415c0-0.86995-0.47625-1.3526-1.3398-1.3526-0.53975 0-1.0478 0.20955-1.4224 0.43815l0.2667 0.4826c0.32385-0.1778 0.66675-0.3302 1.0224-0.3302 0.508 0 0.71755 0.2667 0.7366 0.61595-1.5367 0.10795-2.1526 0.45085-2.1526 1.1494 0 0.5461 0.43815 0.9144 1.0478 0.9144zm0.2159-0.5715c-0.31115 0-0.55245-0.12065-0.55245-0.3937 0-0.3429 0.32385-0.5715 1.4414-0.6477v0.6604c-0.2794 0.23495-0.5715 0.381-0.889 0.381zm4.6418 0.5715c0.36195 0 0.5842-0.06985 0.889-0.17145l-0.17145-0.5461c-0.20955 0.0889-0.37465 0.127-0.53975 0.127-0.31115 0-0.55245-0.15875-0.55245-0.57785v-3.3909h-1.7526v0.5842h1.0224v2.7686c0 0.762 0.381 1.2065 1.1049 1.2065zm3.81 0c0.36195 0 0.5842-0.06985 0.889-0.17145l-0.17145-0.5461c-0.20955 0.0889-0.37465 0.127-0.53975 0.127-0.31115 0-0.55245-0.15875-0.55245-0.57785v-3.3909h-1.7526v0.5842h1.0224v2.7686c0 0.762 0.381 1.2065 1.1049 1.2065zm2.1399 1.2065c0.74295 0 1.124-0.43815 1.3906-1.1366l1.3018-3.2639h-0.6985l-0.5588 1.5304c-0.1016 0.2921-0.2159 0.61595-0.31115 0.92075h-0.0254c-0.1143-0.31115-0.23495-0.635-0.3429-0.92075l-0.6477-1.5304h-0.7239l1.397 3.0798-0.0762 0.19685c-0.127 0.31115-0.3556 0.53975-0.75565 0.53975-0.0825 0-0.1778-0.01905-0.254-0.04445l-0.1397 0.56515c0.12065 0.0381 0.2794 0.0635 0.4445 0.0635zm3.3211-0.31115h3.048v-0.57785h-3.048zm4.8704-0.97155h0.73025v-3.2956c0-0.43815 0.2032-0.67945 0.67945-0.67945 0.254 0 0.46355 0.0381 0.6858 0.13335l0.1524-0.53975c-0.2794-0.10795-0.59055-0.1778-0.92075-0.1778-0.92075 0-1.3272 0.5334-1.3272 1.27zm-0.85725-2.5336h2.7686v-0.5842h-1.886l-0.88265 0.03175zm5.1054 2.5336h0.7366v-3.1178h-2.0828v0.5842h1.3462zm0.3175-3.683c0.29845 0 0.5207-0.19685 0.5207-0.48895 0-0.29845-0.22225-0.4953-0.5207-0.4953s-0.5207 0.19685-0.5207 0.4953c0 0.2921 0.22225 0.48895 0.5207 0.48895zm2.1336 3.683h0.73025v-2.1272c0.28575-0.28575 0.50165-0.43815 0.80645-0.43815 0.4191 0 0.5842 0.2286 0.5842 0.73025v1.8352h0.73025v-1.9304c0-0.8001-0.32385-1.2636-1.0478-1.2636-0.47625 0-0.8255 0.24765-1.124 0.55245h-0.0254l-0.0572-0.47625h-0.5969zm5.3848 0.0762c0.4572 0 0.889-0.14605 1.2192-0.3683l-0.254-0.45085c-0.2794 0.15875-0.5461 0.254-0.86995 0.254-0.6477 0-1.0858-0.3429-1.0858-1.0732 0-0.69215 0.3937-1.0668 0.9144-1.0668 0.4826 0 0.7747 0.3175 0.7747 0.93345l0.1397-0.1651h-2.0256v0.5207h2.5019c0.0127-0.08255 0.0318-0.22225 0.0318-0.37465 0-0.85725-0.51435-1.4796-1.4478-1.4796-0.83185 0-1.6066 0.61595-1.6066 1.632 0 1.0414 0.7493 1.6383 1.7082 1.6383zm3.6195-2.159c0.36195 0 0.6223-0.27305 0.6223-0.64135s-0.26035-0.64135-0.6223-0.64135c-0.3683 0-0.62865 0.27305-0.62865 0.64135s0.26035 0.64135 0.62865 0.64135zm-0.51435 3.448c0.7874-0.26035 1.2256-0.8128 1.2256-1.5875 0-0.59055-0.23495-0.9525-0.67945-0.9525-0.33655 0-0.6096 0.2159-0.6096 0.5715 0 0.3683 0.27305 0.56515 0.59055 0.56515 0.1397 0 0.2794-0.0381 0.38735-0.14605l-0.3683-0.57785 0.0762 0.6731c6e-3 0.4699-0.26035 0.8001-0.8128 1.016z"/><path d="m51.254 67.593h0.43815c0.8128 0 1.1811-0.2032 1.1811-0.8763 0-0.45085-0.0635-0.7366-0.0635-1.1494 0-0.23495 0.1778-0.47625 0.89535-0.4826v-0.43815c-0.71755-0.0127-0.89535-0.24765-0.89535-0.4826 0-0.40005 0.0635-0.7112 0.0635-1.1557 0-0.66675-0.3683-0.8763-1.1811-0.8763h-0.43815v0.40005h0.29845c0.57785 0 0.7112 0.127 0.7112 0.51435 0 0.34925-0.03175 0.70485-0.03175 1.0922 0 0.4445 0.15875 0.635 0.6096 0.7112v0.0254c-0.45085 0.0762-0.6096 0.27305-0.6096 0.71755 0 0.41275 0.03175 0.73025 0.03175 1.0922 0 0.38735-0.13335 0.51435-0.7112 0.51435h-0.29845z"/></g><rect x="49.401" y="30.505" width="97.543" height="4.5484" fill="#3f3f3f" stroke="#3f3f3f" stroke-dashoffset="72.567" stroke-linecap="square" stroke-miterlimit="5" style="paint-order:markers stroke fill"/><path d="m142.78 31.185 2.8261 3.0561" fill="none" stroke="#d21f1f" stroke-width=".4"/><path d="m145.61 31.185-2.8261 3.0561" fill="none" stroke="#d21f1f" stroke-width=".4"/></g></svg>
