{
	"asset":{
		"generator":"Khronos glTF Blender I/O v4.4.56",
		"version":"2.0"
	},
	"scene":0,
	"scenes":[
		{
			"name":"Scene",
			"nodes":[
				0,
				1
			]
		}
	],
	"nodes":[
		{
			"mesh":0,
			"name":"Circle"
		},
		{
			"mesh":1,
			"name":"Circle.001",
			"translation":[
				0,
				-0.08456043154001236,
				0
			]
		}
	],
	"meshes":[
		{
			"name":"Circle",
			"primitives":[
				{
					"attributes":{
						"POSITION":0,
						"NORMAL":1,
						"TEXCOORD_0":2
					},
					"indices":3
				}
			]
		},
		{
			"name":"Circle.001",
			"primitives":[
				{
					"attributes":{
						"POSITION":4,
						"NORMAL":5,
						"TEXCOORD_0":6
					},
					"indices":7
				}
			]
		}
	],
	"accessors":[
		{
			"bufferView":0,
			"componentType":5126,
			"count":180,
			"max":[
				1.4364324808120728,
				6.09285306930542,
				1.6586493253707886
			],
			"min":[
				-1.4364324808120728,
				-0.7608055472373962,
				-1.6586493253707886
			],
			"type":"VEC3"
		},
		{
			"bufferView":1,
			"componentType":5126,
			"count":180,
			"type":"VEC3"
		},
		{
			"bufferView":2,
			"componentType":5126,
			"count":180,
			"type":"VEC2"
		},
		{
			"bufferView":3,
			"componentType":5123,
			"count":276,
			"type":"SCALAR"
		},
		{
			"bufferView":4,
			"componentType":5126,
			"count":540,
			"max":[
				2.323965072631836,
				9.409284591674805,
				2.102625846862793
			],
			"min":[
				-2.323965072631836,
				5.996582984924316,
				-2.102625608444214
			],
			"type":"VEC3"
		},
		{
			"bufferView":5,
			"componentType":5126,
			"count":540,
			"type":"VEC3"
		},
		{
			"bufferView":6,
			"componentType":5126,
			"count":540,
			"type":"VEC2"
		},
		{
			"bufferView":7,
			"componentType":5123,
			"count":792,
			"type":"SCALAR"
		}
	],
	"bufferViews":[
		{
			"buffer":0,
			"byteLength":2160,
			"byteOffset":0,
			"target":34962
		},
		{
			"buffer":0,
			"byteLength":2160,
			"byteOffset":2160,
			"target":34962
		},
		{
			"buffer":0,
			"byteLength":1440,
			"byteOffset":4320,
			"target":34962
		},
		{
			"buffer":0,
			"byteLength":552,
			"byteOffset":5760,
			"target":34963
		},
		{
			"buffer":0,
			"byteLength":6480,
			"byteOffset":6312,
			"target":34962
		},
		{
			"buffer":0,
			"byteLength":6480,
			"byteOffset":12792,
			"target":34962
		},
		{
			"buffer":0,
			"byteLength":4320,
			"byteOffset":19272,
			"target":34962
		},
		{
			"buffer":0,
			"byteLength":1584,
			"byteOffset":23592,
			"target":34963
		}
	],
	"buffers":[
		{
			"byteLength":25176,
			"uri":"carrot.bin"
		}
	]
}
