{
	"asset":{
		"generator":"Khronos glTF Blender I/O v4.4.56",
		"version":"2.0"
	},
	"scene":0,
	"scenes":[
		{
			"name":"Scene",
			"nodes":[
				0
			]
		}
	],
	"nodes":[
		{
			"mesh":0,
			"name":"Cylinder"
		}
	],
	"meshes":[
		{
			"name":"Cylinder",
			"primitives":[
				{
					"attributes":{
						"POSITION":0,
						"NORMAL":1,
						"TEXCOORD_0":2
					},
					"indices":3
				}
			]
		}
	],
	"accessors":[
		{
			"bufferView":0,
			"componentType":5126,
			"count":1072,
			"max":[
				0.7401555180549622,
				0.6650428175926208,
				1.581966519355774
			],
			"min":[
				-2.5709445476531982,
				-1.5152839422225952,
				-1.7534674406051636
			],
			"type":"VEC3"
		},
		{
			"bufferView":1,
			"componentType":5126,
			"count":1072,
			"type":"VEC3"
		},
		{
			"bufferView":2,
			"componentType":5126,
			"count":1072,
			"type":"VEC2"
		},
		{
			"bufferView":3,
			"componentType":5123,
			"count":1608,
			"type":"SCALAR"
		}
	],
	"bufferViews":[
		{
			"buffer":0,
			"byteLength":12864,
			"byteOffset":0,
			"target":34962
		},
		{
			"buffer":0,
			"byteLength":12864,
			"byteOffset":12864,
			"target":34962
		},
		{
			"buffer":0,
			"byteLength":8576,
			"byteOffset":25728,
			"target":34962
		},
		{
			"buffer":0,
			"byteLength":3216,
			"byteOffset":34304,
			"target":34963
		}
	],
	"buffers":[
		{
			"byteLength":37520,
			"uri":"hand_grab.bin"
		}
	]
}
