{"asset":{"version":"2.0","generator":"Blockbench 4.12.3 glTF exporter"},"scenes":[{"nodes":[1],"name":"blockbench_export"}],"scene":0,"nodes":[{"name":"sphere","mesh":0},{"children":[0]}],"bufferViews":[{"buffer":0,"byteOffset":0,"byteLength":5208,"target":34962,"byteStride":12},{"buffer":0,"byteOffset":5208,"byteLength":5208,"target":34962,"byteStride":12},{"buffer":0,"byteOffset":10416,"byteLength":3472,"target":34962,"byteStride":8},{"buffer":0,"byteOffset":13888,"byteLength":1248,"target":34963}],"buffers":[{"byteLength":15136,"uri":"data:application/octet-stream;base64,"}],"accessors":[{"bufferView":0,"componentType":5126,"count":434,"max":[0.5234242677688599,0.5375000238418579,0.5404237508773804],"min":[-0.5296742916107178,2.7755575615628914e-17,-0.5073508620262146],"type":"VEC3"},{"bufferView":1,"componentType":5126,"count":434,"max":[0.941040575504303,0.9911953210830688,0.9493754506111145],"min":[-0.9825384020805359,-1,-0.9991981387138367],"type":"VEC3"},{"bufferView":2,"componentType":5126,"count":434,"max":[0.6862435340881348,0.578125],"min":[0,0],"type":"VEC2"},{"bufferView":3,"componentType":5123,"count":624,"max":[433],"min":[0],"type":"SCALAR"}],"materials":[{"pbrMetallicRoughness":{"metallicFactor":0,"roughnessFactor":1,"baseColorTexture":{"index":0}},"alphaMode":"MASK","alphaCutoff":0.05,"doubleSided":true}],"textures":[{"sampler":0,"source":0,"name":"texture"}],"samplers":[{"magFilter":9728,"minFilter":9728,"wrapS":33071,"wrapT":33071}],"images":[{"mimeType":"image/png","uri":"data:image/png;base64,"}],"meshes":[{"primitives":[{"mode":4,"attributes":{"POSITION":0,"NORMAL":1,"TEXCOORD_0":2},"indices":3,"material":0}]}]}