{"asset":{"version":"2.0","generator":"Blockbench 4.12.3 glTF exporter"},"scenes":[{"nodes":[1],"name":"blockbench_export"}],"scene":0,"nodes":[{"name":"sphere","mesh":0},{"children":[0]}],"bufferViews":[{"buffer":0,"byteOffset":0,"byteLength":4464,"target":34962,"byteStride":12},{"buffer":0,"byteOffset":4464,"byteLength":4464,"target":34962,"byteStride":12},{"buffer":0,"byteOffset":8928,"byteLength":2976,"target":34962,"byteStride":8},{"buffer":0,"byteOffset":11904,"byteLength":1068,"target":34963}],"buffers":[{"byteLength":12972,"uri":"data:application/octet-stream;base64,"}],"accessors":[{"bufferView":0,"componentType":5126,"count":372,"max":[0.508370041847229,0.5056897401809692,0.5],"min":[-0.508370041847229,-0.01875000074505806,-0.528509795665741],"type":"VEC3"},{"bufferView":1,"componentType":5126,"count":372,"max":[0.9727380275726318,0.9987128973007202,0.9807852506637573],"min":[-0.9902072548866272,-1,-0.9790933728218079],"type":"VEC3"},{"bufferView":2,"componentType":5126,"count":372,"max":[0.609375,0.609375],"min":[0,0],"type":"VEC2"},{"bufferView":3,"componentType":5123,"count":534,"max":[371],"min":[0],"type":"SCALAR"}],"materials":[{"pbrMetallicRoughness":{"metallicFactor":0,"roughnessFactor":1,"baseColorTexture":{"index":0}},"alphaMode":"MASK","alphaCutoff":0.05,"doubleSided":true}],"textures":[{"sampler":0,"source":0,"name":"texture"}],"samplers":[{"magFilter":9728,"minFilter":9728,"wrapS":33071,"wrapT":33071}],"images":[{"mimeType":"image/png","uri":"data:image/png;base64,"}],"meshes":[{"primitives":[{"mode":4,"attributes":{"POSITION":0,"NORMAL":1,"TEXCOORD_0":2},"indices":3,"material":0}]}]}