<?xml version="1.0" encoding="UTF-8" standalone="no"?>
<svg
   width="100%"
   height="100%"
   viewBox="0 0 1200 800"
   version="1.1"
   xml:space="preserve"
   style="fill-rule:evenodd;clip-rule:evenodd;stroke-linejoin:round;stroke-miterlimit:1.41421;"
   id="svg9"
   sodipodi:docname="ferris.svg"
   inkscape:version="1.4.2 (ebf0e940d0, 2025-05-08)"
   xmlns:inkscape="http://www.inkscape.org/namespaces/inkscape"
   xmlns:sodipodi="http://sodipodi.sourceforge.net/DTD/sodipodi-0.dtd"
   xmlns="http://www.w3.org/2000/svg"
   xmlns:svg="http://www.w3.org/2000/svg"
   xmlns:serif="http://www.serif.com/"><defs
   id="defs9" /><sodipodi:namedview
   id="namedview9"
   pagecolor="#505050"
   bordercolor="#ffffff"
   borderopacity="1"
   inkscape:showpageshadow="0"
   inkscape:pageopacity="0"
   inkscape:pagecheckerboard="1"
   inkscape:deskcolor="#d1d1d1"
   showgrid="false"
   inkscape:zoom="0.80543705"
   inkscape:cx="433.9259"
   inkscape:cy="164.50696"
   inkscape:window-width="1892"
   inkscape:window-height="1017"
   inkscape:window-x="0"
   inkscape:window-y="0"
   inkscape:window-maximized="0"
   inkscape:current-layer="g2" />
    <g
   id="Layer-1"
   serif:id="Layer 1">
        <g
   transform="matrix(1,0,0,1,1009.4,506.362)"
   id="g1">
            
        </g>
        <g
   transform="matrix(1,0,0,1,1079.49,294.885)"
   id="g2">
            <path
   d="M -83.216848,165.82882 -55.541,100.154 c 2.66,-3.84 3.196,-8.832 1.469,-13.211 -1.731,-4.358 -5.515,-7.482 -9.99,-8.247 l -44.066,-7.479 c -1.709,-3.485 -3.498,-6.916 -5.294,-10.319 L -94.907,18.51 c 1.903,-4.317 1.505,-9.335 -1.022,-13.254 -2.517,-3.937 -6.786,-6.237 -11.338,-6.058 l -44.724,1.625 c -2.315,-3.016 -4.667,-6.003 -7.067,-8.937 l 10.278,-45.432 c 1.042,-4.612 -0.274,-9.443 -3.487,-12.794 -3.195,-3.339 -7.838,-4.722 -12.253,-3.639 l -43.562,10.709 c -2.82,-2.493 -5.688,-4.953 -8.588,-7.365 l 1.567,-46.641 c 0.168,-4.721 -2.033,-9.208 -5.812,-11.829 -3.777,-2.636 -8.57,-3.032 -12.701,-1.074 l -40.638,19.321 c -3.273,-1.878 -6.565,-3.737 -9.892,-5.537 l -7.181,-45.961 c -0.729,-4.656 -3.724,-8.612 -7.919,-10.418 -4.185,-1.817 -8.976,-1.228 -12.648,1.536 l -36.232,27.185 c -3.569,-1.185 -7.153,-2.32 -10.779,-3.407 l -15.617,-43.585 c -1.588,-4.443 -5.25,-7.706 -9.716,-8.624 -4.45,-0.909 -9.028,0.632 -12.114,4.08 l -30.499,34.119 c -3.685,-0.423 -7.377,-0.81 -11.076,-1.131 l -23.549,-39.676 c -2.384,-4.018 -6.597,-6.464 -11.139,-6.464 -4.529,0 -8.75,2.446 -11.118,6.464 l -23.555,39.676 c -3.701,0.321 -7.408,0.708 -11.088,1.131 l -30.499,-34.119 c -3.09,-3.448 -7.684,-4.989 -12.122,-4.08 -4.46,0.93 -8.128,4.181 -9.707,8.624 l -15.629,43.585 c -3.621,1.087 -7.205,2.23 -10.78,3.407 l -36.22,-27.185 c -3.683,-2.774 -8.478,-3.361 -12.668,-1.536 -4.181,1.806 -7.188,5.762 -7.913,10.418 l -7.186,45.961 c -3.322,1.8 -6.614,3.649 -9.895,5.537 l -40.634,-19.321 c -4.127,-1.966 -8.945,-1.562 -12.704,1.074 -3.773,2.621 -5.98,7.108 -5.81,11.829 l 1.562,46.641 c -2.894,2.412 -5.756,4.872 -8.591,7.365 l -43.554,-10.709 c -4.423,-1.074 -9.062,0.3 -12.265,3.639 -3.221,3.351 -4.526,8.182 -3.491,12.794 l 10.257,45.432 c -2.378,2.945 -4.733,5.921 -7.042,8.937 l -44.724,-1.625 c -4.513,-0.135 -8.821,2.121 -11.343,6.058 -2.527,3.919 -2.91,8.937 -1.029,13.254 l 18.528,42.388 c -1.799,3.403 -3.586,6.834 -5.309,10.319 l -44.063,7.479 c -4.479,0.754 -8.252,3.876 -9.994,8.247 -1.728,4.379 -1.167,9.371 1.474,13.211 l 26.066,37.754 c -0.201,0.667 -0.387,1.339 -0.587,2.008 0,0 0,68.62815 24.187,69.613 37.38929,0 356.10626,177.08546 712.429,2.884"
   style="fill:#f74c00;fill-rule:nonzero"
   id="path2"
   sodipodi:nodetypes="ccccccccccccccccccccccccccccccccsccccccccccccccccccccccccccccccccccc" />
        </g>
        <g
   transform="matrix(1,0,0,1,917.896,244.679)"
   id="g3">
            
        </g>
        <g
   transform="matrix(1,0,0,1,676.997,488.361)"
   id="g4">
            <path
   d="M0,-78.192C0,-78.192 36.935,-118.635 73.871,-78.192C73.871,-78.192 102.893,-24.265 73.871,2.695C73.871,2.695 26.384,40.443 0,2.695C0,2.695 -31.658,-26.964 0,-78.192"
   style="fill-rule:nonzero;"
   id="path4" />
        </g>
        <g
   transform="matrix(1,0,0,1,719.761,425.169)"
   id="g5">
            <path
   d="M0,0.004C0,15.75 -9.282,28.518 -20.732,28.518C-32.18,28.518 -41.462,15.75 -41.462,0.004C-41.462,-15.746 -32.18,-28.514 -20.732,-28.514C-9.282,-28.514 0,-15.746 0,0.004"
   style="fill:white;fill-rule:nonzero;"
   id="path5" />
        </g>
        <g
   transform="matrix(1,0,0,1,512.148,482.736)"
   id="g6">
            <path
   d="M0,-83.609C0,-83.609 63.355,-111.661 80.648,-49.047C80.648,-49.047 98.762,23.933 28.618,28.052C28.618,28.052 -60.826,10.824 0,-83.609"
   style="fill-rule:nonzero;"
   id="path6" />
        </g>
        <g
   transform="matrix(1,0,0,1,543.968,426.204)"
   id="g7">
            <path
   d="M0,0.002C0,16.241 -9.572,29.411 -21.381,29.411C-33.185,29.411 -42.76,16.241 -42.76,0.002C-42.76,-16.242 -33.185,-29.409 -21.381,-29.409C-9.572,-29.409 0,-16.242 0,0.002"
   style="fill:white;fill-rule:nonzero;"
   id="path7" />
        </g>
        <g
   transform="matrix(1,0,0,1,593.317,576.574)"
   id="g8">
            <path
   d="M0,-40.271L80.796,-46.755C80.796,-46.755 78.058,-33.749 67.517,-23.986C67.517,-23.986 39.727,6.484 7.844,-26.519C7.844,-26.519 2.627,-32.148 0,-40.271"
   style="fill-rule:nonzero;"
   id="path8" />
        </g>
        
    </g>
</svg>
