<?xml version="1.0" encoding="UTF-8"?>
<svg width="264.01mm" height="64.946mm" version="1.1" viewBox="0 0 264.01 64.946" xmlns="http://www.w3.org/2000/svg"><g transform="translate(14.662 -21.339)"><path d="m-10.297 27.844h122.48c2.4182 0 4.365 1.6546 4.365 3.7098v22.983c0 2.0552-1.9586 3.5071-4.365 3.7098 0 0-73.66 13.419-112.19 9.4516-7.0571-0.7268-14.662-11.106-14.662-13.161v-22.983c0-2.0552 1.9468-3.7098 4.365-3.7098z" fill="#643903" stroke-dashoffset="72.567" stroke-linecap="square" stroke-miterlimit="5" stroke-width="3.6876" style="paint-order:markers stroke fill"/><path d="m245.26 21.339h-139.25l0.66611 53.972 75.108-19.904z" fill="#808080"/><g fill="#a7a6a6"><path d="m241.18 21.339s-33.729 19.3-51.681 26.986c-25.49 10.914-82.825 26.986-82.825 26.986l0.13539 10.974c34.21-6.6421 68.732-16.021 95.312-27.425 25.34-10.872 43.463-23.585 47.217-37.521z"/><ellipse cx="-4.5753" cy="50.925" rx="4.5753" ry="3.8885" style="paint-order:markers stroke fill"/><ellipse cx="96.23" cy="50.925" rx="3.0457" ry="2.5885" style="paint-order:markers stroke fill"/></g></g></svg>
