<?xml version="1.0" encoding="UTF-8"?>
<svg width="35.904mm" height="71.502mm" version="1.1" viewBox="0 0 35.904 71.502" xmlns="http://www.w3.org/2000/svg"><g transform="translate(-117.44 -83.038)"><path transform="matrix(.26458 0 0 .26458 151.94 46.55)" d="m0 204.14-79.343-58.446c-2.1776-1.6041-1.49-5.201-2.26-7.781 0 0-62.561 7.781-46.029 74.505 39.164-7.025 62.873 13.955 62.873 13.955 8.176 4.74-12.996 63.344-30.407 102.14-23.679 44.05-27.151 78.422-25.144 79.614 1.268 0.757 9.883-12.353 22.172-33.217 30.324-42.253 87.646-122.8 98.138-142.37 11.895-22.182 0-28.399 0-28.399" clip-rule="evenodd" fill="#f74c00" stroke-linejoin="round" stroke-miterlimit="1.4142"/></g></svg>
